# xmcd CD database file
#
# Track frame offsets:
#	150
#	19110
#	47557
#	63929
#	77960
#	88520
#	105125
#	118560
#	131288
#	144098
#	156703
#	168524
#	191054
#	202665
#	218915
#	232077
#	243788
#	256575
#	269107
#	282407
#
# Disc length: 3889 seconds
#
# Revision: 2
# Processed by: cddbd v1.5.2PL0 Copyright (c) Steve Scherf et al.
# Submitted via: CDex 1.70beta2
#
DISCID=120f2f14
DTITLE=Jazzladies - Ladies of Jazz - CD1
DYEAR=1998
DGENRE=Jazz
TTITLE0=01 - When I Fall In Love  Lena Horne_b
TTITLE1=02 - Send In The Clowns Sarah Vaughan_b
TTITLE2=03/ Here Comes The Sun  Nina Simone_b
TTITLE3=04 - Crying My Heart Out For You Ella Fitzgerald_b
TTITLE4=05 - My Man  Billie Holiday
TTITLE5=06 - Fly Me To The Moon  Judy Garland_b
TTITLE6=07 - I'll Be With You In Apple Blossom Time  Andrew Sisters_b
TTITLE7=08 - They Say  Helen Forrest_b
TTITLE8=09 - Half As Much  Rosemary Clooney
TTITLE9=10 - Unforgettable  Dinah Washington_b
TTITLE10=11 - I'm Beginning To See The Light  Peggy Lee_b
TTITLE11=12 - Sweet Alibis  Carmen McRay_b
TTITLE12=13 - Walkin After Midnight  Patsy Cline_b
TTITLE13=14 - Stormy Weather  June Christy_b
TTITLE14=15 - Falling In Love Again  Marlene Dietrich_b
TTITLE15=16 - I've Got The Sun In The Morning  Doris Day_b
TTITLE16=17 - I'm So Right Tonight  Jo Stafford_b
TTITLE17=18 - Gotta Be Getting'  Anita O'Day_b
TTITLE18=19 - At Last  Etta James_b
TTITLE19=20 - I Love How You Love Me  The Paris Sisters_b
EXTD=YEAR: 1998
EXTT0=
EXTT1=
EXTT2=
EXTT3=
EXTT4=
EXTT5=
EXTT6=
EXTT7=
EXTT8=
EXTT9=
EXTT10=
EXTT11=
EXTT12=
EXTT13=
EXTT14=
EXTT15=
EXTT16=
EXTT17=
EXTT18=
EXTT19=
PLAYORDER=
